#!OML:ASF H:\MichaelJackson\Top Level 1\Subject 1\Session 1\male.ASF
:FULLY-SPECIFIED
:DEGREES
777
root 3.86392 16.8379 12.1524 0.268626 18.0857 1.04956
lowerback 2.79463 -3.61892 0.822182
upperback -0.0225207 -4.82277 -1.45965
thorax -1.77932 -2.42211 -1.74179
lowerneck -7.20026 -4.45687 -0.633993
upperneck 5.354 -6.08686 2.69729
head 3.09405 -2.93337 0.68403
rclavicle 2.86809e-014 4.17448e-015
rhumerus -63.4222 22.2366 -93.2764
rradius 120.563
rwrist -7.45502
rhand -20.4694 -19.9626
rfingers 7.12502
rthumb 5.88668 -49.8608
lclavicle 2.86809e-014 4.17448e-015
lhumerus -54.7844 -34.7755 112.409
lradius 63.2727
lwrist 16.6007
lhand 26.5665 24.7078
lfingers 7.12502
lthumb 50.5954 45.6122
rfemur -19.1328 -8.72829 -2.2679
rtibia 60.5
rfoot 9.35823 -26.7653
rtoes 44.3743
lfemur -21.5324 22.4613 -13.4531
ltibia 39.7918
lfoot -7.97221 0.914805
ltoes 16.089
778
root 3.79797 16.8236 12.2074 0.386397 17.3366 1.22729
lowerback 2.51596 -3.37994 0.833236
upperback -0.0947221 -4.50861 -1.67697
thorax -1.70394 -2.26682 -2.00032
lowerneck -7.14173 -4.47713 -0.596234
upperneck 5.43344 -6.12344 2.74248
head 3.11127 -2.9487 0.690808
rclavicle -1.50797e-014 -8.34896e-015
rhumerus -63.906 25.3232 -93.6043
rradius 122.494
rwrist -8.00366
rhand -19.276 -18.986
rfingers 7.12502
rthumb 7.03875 -48.849
lclavicle -1.50797e-014 -8.34896e-015
lhumerus -54.4796 -34.0598 112.571
lradius 61.7978
lwrist 15.3974
lhand 26.7412 24.6617
lfingers 7.12502
lthumb 50.7548 45.4789
rfemur -17.7151 -8.13608 -2.78116
rtibia 55.9734
rfoot 9.88475 -26.9325
rtoes 45.3284
lfemur -20.4959 20.373 -11.478
ltibia 39.1547
lfoot -6.92676 -3.48349
ltoes 11.5275
779
root 3.72621 16.8089 12.2624 0.605477 16.5294 1.39647
lowerback 2.14698 -3.15865 0.827355
upperback -0.189658 -4.2185 -1.91327
thorax -1.59996 -2.12344 -2.27072
lowerneck -7.05396 -4.46134 -0.530944
upperneck 5.41843 -6.11325 2.81044
head 3.08949 -2.94073 0.704281
rclavicle -3.0793e-014 -1.27222e-014
rhumerus -64.3152 28.3535 -93.6695
rradius 124.408
rwrist -8.7278
rhand -17.7508 -17.7025
rfingers 7.12502
rthumb 8.51086 -47.511
lclavicle -3.0793e-014 -1.27222e-014
lhumerus -54.1282 -33.3149 112.542
lradius 60.356
lwrist 13.9955
lhand 26.9929 24.0947
lfingers 7.12502
lthumb 50.9842 44.7849
rfemur -16.6502 -7.54258 -3.20244
rtibia 52.0969
rfoot 10.4359 -26.6512
rtoes 45.3845
lfemur -19.3863 18.1338 -9.44103
ltibia 37.9759
lfoot -6.10885 -8.5935
ltoes 6.60721
780
root 3.64941 16.7932 12.3174 0.948251 15.6435 1.57764
lowerback 1.66044 -2.95296 0.789538
upperback -0.311853 -3.94936 -2.16724
thorax -1.45572 -1.99021 -2.54416
lowerneck -6.93125 -4.40265 -0.442675
upperneck 5.30952 -6.04554 2.89069
head 3.0275 -2.90481 0.722374
rclavicle -1.53685e-014 5.1684e-015
rhumerus -64.5916 31.3331 -93.398
rradius 126.265
rwrist -9.51847
rhand -15.9163 -16.13
rfingers 7.12502
rthumb 10.2809 -45.8588
lclavicle -1.53685e-014 5.1684e-015
lhumerus -53.7333 -32.5166 112.312
lradius 58.9982
lwrist 12.6111
lhand 27.4665 23.3006
lfingers 7.12502
lthumb 51.4154 43.7472
rfemur -15.9466 -6.91135 -3.55691
rtibia 48.9454
rfoot 11.1219 -25.7839
rtoes 43.5751
lfemur -18.1964 15.7068 -7.39507
ltibia 36.212
lfoot -5.62542 -14.2882
ltoes 2.16933
781
root 3.56819 16.7751 12.3721 1.42337 14.7008 1.78039
lowerback 1.05201 -2.77272 0.723003
upperback -0.467677 -3.71328 -2.4392
thorax -1.27665 -1.87326 -2.82169
lowerneck -6.79626 -4.30115 -0.335522
upperneck 5.15039 -5.92035 2.97352
head 2.94458 -2.84079 0.741443
rclavicle -3.49426e-015 -5.1684e-015
rhumerus -64.665 34.2746 -92.7064
rradius 128.034
rwrist -10.3251
rhand -13.8391 -14.3709
rfingers 7.12502
rthumb 12.2842 -43.9901
lclavicle -3.49426e-015 -5.1684e-015
lhumerus -53.3237 -31.6807 111.904
lradius 57.7721
lwrist 11.4698
lhand 28.2498 22.5586
lfingers 7.12502
lthumb 52.1268 42.5886
rfemur -15.5654 -6.21441 -3.87003
rtibia 46.5115
rfoot 11.8934 -24.3343
rtoes 38.7962
lfemur -16.945 13.036 -5.38967
ltibia 33.8852
lfoot -5.35563 -20.3463
ltoes -0.830538
782
root 3.48371 16.7515 12.426 2.00775 13.7322 1.99677
lowerback 0.33516 -2.62807 0.641484
upperback -0.653006 -3.52236 -2.71879
thorax -1.06748 -1.77871 -3.09943
lowerneck -6.66484 -4.15796 -0.213339
upperneck 4.98026 -5.73906 3.04579
head 2.85699 -2.74932 0.756861
rclavicle 2.95366e-014 1.63003e-014
rhumerus -64.4534 37.1856 -91.4834
rradius 129.704
rwrist -11.1402
rhand -11.6389 -12.5816
rfingers 7.12502
rthumb 14.405 -42.0617
lclavicle 2.95366e-014 1.63003e-014
lhumerus -52.9293 -30.8554 111.382
lradius 56.7156
lwrist 10.8129
lhand 29.3522 22.1917
lfingers 7.12502
lthumb 53.1236 41.6055
rfemur -15.4192 -5.41614 -4.15996
rtibia 44.7086
rfoot 12.6867 -22.3666
rtoes 29.3014
lfemur -15.6565 10.0765 -3.4538
ltibia 31.0791
lfoot -4.97151 -26.4231
ltoes -1.94311
783
root 3.39716 16.7196 12.4791 2.65527 12.7973 2.21162
lowerback -0.448527 -2.53664 0.566455
upperback -0.85992 -3.39943 -2.99509
thorax -0.846155 -1.71821 -3.37685
lowerneck -6.55376 -3.97907 -0.0766575
upperneck 4.84592 -5.51041 3.09375
head 2.78353 -2.63439 0.76297
rclavicle -2.97683e-014 -7.15625e-015
rhumerus -63.8492 40.0648 -89.5983
rradius 131.277
rwrist -12.0533
rhand -9.34048 -10.9443
rfingers 7.12502
rthumb 16.6187 -40.2528
lclavicle -2.97683e-014 -7.15625e-015
lhumerus -52.5919 -30.1001 110.826
lradius 55.8536
lwrist 10.8043
lhand 30.6887 22.4726
lfingers 7.12502
lthumb 54.325 41.0884
rfemur -15.3776 -4.51569 -4.44285
rtibia 43.3917
rfoot 13.3605 -19.9917
rtoes 13.1924
lfemur -14.362 6.79397 -1.59981
ltibia 27.9339
lfoot -4.19087 -32.0698
ltoes -1.33855
784
root 3.3102 16.6774 12.531 3.32259 11.9516 2.41278
lowerback -1.25054 -2.51146 0.522671
upperback -1.08208 -3.36251 -3.25999
thorax -0.636474 -1.70119 -3.65916
lowerneck -6.47795 -3.769 0.0715253
upperneck 4.78521 -5.24171 3.11574
head 2.74005 -2.49897 0.758862
rclavicle -3.33927e-014 7.95139e-016
rhumerus -62.706 42.8839 -86.8938
rradius 132.758
rwrist -13.2334
rhand -7.00919 -9.65229
rfingers 7.12502
rthumb 18.862 -38.7578
lclavicle -3.33927e-014 7.95139e-016
lhumerus -52.3575 -29.4935 110.319
lradius 55.1982
lwrist 11.5053
lhand 32.0266 23.6344
lfingers 7.12502
lthumb 55.5192 41.3907
rfemur -15.3352 -3.5297 -4.73014
rtibia 42.4074
rfoot 13.6222 -17.4236
rtoes -7.18634
lfemur -13.0921 3.19179 0.166366
ltibia 24.6142
lfoot -2.90548 -36.7526
ltoes 0.633783
